PathFileType	4	(X/Y/Z)	RBDS09\RBDS09runT45.trc
DataRate	CameraRate	NumFrames	NumMarkers	Units	OrigDataRate	OrigDataStartFrame	OrigNumFrames
150.000000	150.000000	4	33	mm	150.000000	3375	4500
Frame#	Time	L.ASIS			L.Heel.Bottom			L.Heel.Lateral			L.Heel.Top			L.Iliac.Crest			L.MT1			L.MT5			L.PSIS			L.Shank.Bottom.Lateral			L.Shank.Bottom.Medial			L.Shank.Top.Lateral			L.Shank.Top.Medial			L.Thigh.Bottom.Lateral			L.Thigh.Bottom.Medial			L.Thigh.Top.Lateral			L.Thigh.Top.Medial			R.ASIS			R.ASY			R.Heel.Bottom			R.Heel.Lateral			R.Heel.Top			R.Iliac.Crest			R.MT1			R.MT5			R.PSIS			R.Shank.Bottom.Lateral			R.Shank.Bottom.Medial			R.Shank.Top.Lateral			R.Shank.Top.Medial			R.Thigh.Bottom.Lateral			R.Thigh.Bottom.Medial			R.Thigh.Top.Lateral			R.Thigh.Top.Medial			
		X1	Y1	Z1	X2	Y2	Z2	X3	Y3	Z3	X4	Y4	Z4	X5	Y5	Z5	X6	Y6	Z6	X7	Y7	Z7	X8	Y8	Z8	X9	Y9	Z9	X10	Y10	Z10	X11	Y11	Z11	X12	Y12	Z12	X13	Y13	Z13	X14	Y14	Z14	X15	Y15	Z15	X16	Y16	Z16	X17	Y17	Z17	X18	Y18	Z18	X19	Y19	Z19	X20	Y20	Z20	X21	Y21	Z21	X22	Y22	Z22	X23	Y23	Z23	X24	Y24	Z24	X25	Y25	Z25	X26	Y26	Z26	X27	Y27	Z27	X28	Y28	Z28	X29	Y29	Z29	X30	Y30	Z30	X31	Y31	Z31	X32	Y32	Z32	X33	Y33	Z33	

3376	22.5	2305.764755519774	955.2995627825112	882.3126608096007	1625.929184683614	310.7015768607441	967.2622240003868	1649.360730814364	286.4267347148105	921.5333977661122	1673.495385660937	321.6941516876958	959.382494117648	2279.315201263009	1030.682963657672	862.4003213564388	1720.194695008554	114.9923318773512	989.048506980491	1684.729761783353	145.9149871497767	888.8789911655656	2151.402741030374	1010.842223588938	974.3502024523319	1757.222145729532	342.0515977355287	896.0227303481944	1733.984292062434	364.2163325846542	939.2089180479365	1804.830286147694	405.7147921470694	887.1463483016552	1782.079873261747	428.9403598287824	929.9217611674424	2048.759114782393	668.1393965469863	879.7047268813852	2014.958646962941	694.2284525804944	938.7659627312353	2095.075250500527	767.887678637658	865.5242359515001	2068.744436839096	789.9946144651701	925.7586375586081	2304.304557555196	975.443565579542	1107.578865237546	2513.539546531985	168.4543406837298	1100.920848727472	2348.949205825219	106.6759316909301	1053.716987021704	2374.488982913548	123.7127887127507	1105.17960665578	2357.734652129457	154.5116885830018	1058.939006542223	2244.559844298533	1050.586972374644	1159.532061706742	2559.343586051973	129.0743161425971	1057.126938249749	2511.174121633638	105.0163476649557	1154.54550619239	2145.80422052887	1008.842797230569	1048.999055138801	2387.450020455158	256.8632053297151	1117.767996258834	2374.124220986417	263.1882211754233	1068.582188790075	2381.20583792506	340.6929391961556	1128.299095508368	2367.775105150448	342.940509800809	1076.820329302567	2414.3756236088	641.0627495408831	1160.776567998452	2365.32661247033	598.1847357491064	1128.436315108728	2336.756830530052	719.3169757675687	1171.233800756105	2292.035712810944	679.960171290329	1137.524441874712	
3377	22.50666666666667	2307.400744846333	956.2295928977896	883.0463771965979	1618.64634517423	329.6672895037394	966.6685988271349	1641.029706678525	304.1331690192247	921.2224940655126	1666.71565709576	338.3911881015007	959.124001507676	2280.791541877192	1032.897883584585	863.1187638531279	1704.218837053106	130.0809977794288	989.8609857945984	1670.235864788254	162.0297302683807	889.4646526984051	2152.277316325015	1011.807401524608	973.222616671124	1751.075455187293	353.8516915102447	895.9864135567685	1728.620468098972	377.4024688892384	938.8444206060008	1801.516987957075	415.1635023098463	886.9760568897295	1779.674132826393	439.7128478651106	929.4674690338504	2052.250254162278	667.413270441833	878.3120538292388	2017.266054744229	693.8923905537357	936.5434653327526	2098.482430820093	767.0987699301522	863.917059306007	2070.673791467064	789.7860640744121	923.2737273011803	2303.8840302555	976.1311279844768	1108.230271081608	2531.370785587902	167.0085793857145	1099.521425668571	2370.585023118073	95.55729945150898	1052.171150292972	2395.226209750192	113.6387927360935	1103.74344114674	2376.343520509508	143.7986132517491	1057.885855157417	2243.574980485385	1051.277857009656	1159.069663404278	2579.298306008531	131.0902258384683	1055.178222123659	2533.125088467752	102.8163390048471	1152.437497399083	2146.067926308963	1009.426639254605	1047.991880613172	2399.892747542036	248.4959489456453	1116.695149315618	2386.196181906154	254.3921911087837	1067.58180829299	2388.734692254802	331.7365814115035	1127.839985715215	2375.239078422471	333.5275414310551	1076.394403265785	2408.703481723953	635.838874957277	1160.853585205403	2359.295238142779	594.5850027675622	1127.023405892216	2332.503551969589	715.6713886631849	1171.303407774708	2287.518069956455	677.7212236957583	1136.38553936939	
3378	22.51333333333334	2308.885639627854	957.0111097164129	883.811741646296	1612.880597768335	348.7338139750509	966.497851799558	1634.125881271318	322.0312949691771	921.3110140360372	1661.280326562686	355.2074289977216	959.2618368699228	2281.117285706264	1034.735682352765	863.6977772595066	1689.663762700825	146.0020502910222	991.075377807031	1657.197475850788	178.8619054081076	890.3984339824431	2152.88971222642	1012.120793819883	972.1905265676309	1746.308491047588	365.647341303653	896.2474846141364	1724.797854191145	390.7086828856453	938.7402511704089	1799.698597876523	424.3169376712866	887.029854288865	1778.932284413801	450.3012872681711	929.1980949852738	2056.658888346565	665.2034166401714	876.763639874004	2020.527875106854	691.706069353819	934.3323267541475	2102.204152370945	765.0875407135121	862.2952493722229	2072.8611469232	788.0825544330459	920.8564102439939	2303.198642325966	976.452238792683	1109.127729889886	2546.285166217322	165.4562468459806	1098.107686392135	2389.333074851891	85.71261963214249	1050.295357503104	2413.139587546854	104.4945301132654	1102.044701707085	2392.35150460813	134.1547259902482	1056.638456588566	2241.863583326828	1051.097429117861	1158.800969056721	2595.939082966171	132.9048736846208	1053.136098842483	2551.770594140908	100.5501546249911	1150.125732356139	2146.07098921751	1009.347038782986	1047.043545009011	2410.194779050858	240.6080566019694	1115.522512474803	2396.1082302702	246.1626844037326	1066.489557873437	2394.545288498753	323.0982335851349	1127.258252298831	2380.919091900366	324.5314838295709	1075.868971056705	2402.607883071797	630.1481026426109	1160.905437137468	2352.926337967162	590.6305576471233	1125.409679963123	2327.929978929883	711.5506274660886	1171.385233253319	2282.729059066545	675.1150652856471	1135.162205851497	
3379	22.52	2310.230774696829	957.5790103773854	884.5715572913658	1608.939197303875	367.8325863181121	966.7499143906169	1628.94566451197	340.04875605676	921.7700722171408	1657.524314810952	372.036138486438	959.7541795445851	2280.433952270087	1036.134385558121	864.1092812262431	1676.669988730537	162.4924067256285	992.5203244977977	1645.787524203118	196.2557551053112	891.5566626617502	2153.297567388193	1011.769153808064	971.2592771587225	1743.098834542297	377.3377858943524	896.7411414724655	1722.687299050654	403.9689384103091	938.8452950839034	1799.467846856409	433.1171672929202	887.2735993630953	1779.921040934767	460.5918411422052	929.0819907927857	2061.823878888823	661.6427431343653	875.1772153873806	2024.667149416058	687.8018909426008	932.2976759799329	2106.112293439054	761.9712126756583	860.7584565896973	2075.298612626905	784.9727066990363	918.6703464140124	2302.312452006768	976.411357154465	1110.192078970789	2558.138183136121	163.5042671055334	1096.693142286317	2404.817284065622	76.97860180319209	1048.050159570835	2427.870372701299	96.12759447102748	1100.04421947074	2405.455204280817	125.4630403640942	1055.133638370852	2239.607900214444	1050.142256866708	1158.723392802127	2609.154651197076	134.1006851058482	1051.052164527835	2566.848789080171	97.89332335688718	1147.651556747125	2145.883488509114	1008.626368799959	1046.1585523697	2418.147769401544	233.1081392757741	1114.181846419724	2403.725725876866	238.3937390986174	1065.211199121531	2398.504907848966	314.769324819462	1126.437195052052	2384.751120610272	315.9278362739609	1075.101152583369	2396.23107286007	624.1615396073103	1160.88712742522	2346.345153606445	586.4182032441184	1123.682618571427	2323.171118112316	707.0981895306186	1171.411160957912	2277.783016023224	672.2257911871692	1133.889981223758	
